<?xml version="1.0" encoding="utf-8"?>
<!-- Generator: Adobe Illustrator 21.0.0, SVG Export Plug-In . SVG Version: 6.00 Build 0)  -->
<svg version="1.1" id="Capa_1" xmlns="http://www.w3.org/2000/svg" xmlns:xlink="http://www.w3.org/1999/xlink" x="0px" y="0px"
	 viewBox="0 0 150 34.7" style="enable-background:new 0 0 150 34.7;" xml:space="preserve">
<g>
	<path d="M9.4,7.2h9.7c2.3,0,4.4,0.4,6.2,1.3c1.8,0.9,3.2,2.1,4.2,3.7s1.5,3.5,1.5,5.6s-0.5,4-1.5,5.6s-2.4,2.9-4.2,3.7
		c-1.8,0.9-3.8,1.3-6.2,1.3H9.4V7.2z M18.9,24.5c2.1,0,3.8-0.6,5.1-1.8c1.3-1.2,1.9-2.8,1.9-4.8s-0.6-3.7-1.9-4.8
		c-1.3-1.2-3-1.8-5.1-1.8h-4.5v13.3h4.5V24.5z"/>
	<path d="M37.5,27.7c-1.4-0.7-2.5-1.7-3.2-3c-0.8-1.3-1.2-2.7-1.2-4.4c0-1.6,0.4-3.1,1.2-4.4s1.8-2.3,3.2-3s2.9-1.1,4.7-1.1
		c1.7,0,3.3,0.4,4.6,1.1c1.4,0.7,2.4,1.7,3.2,3s1.2,2.7,1.2,4.4c0,1.6-0.4,3.1-1.2,4.4s-1.8,2.3-3.2,3s-2.9,1.1-4.6,1.1
		C40.4,28.8,38.8,28.4,37.5,27.7z M45.1,23.6c0.8-0.8,1.2-1.9,1.2-3.3s-0.4-2.5-1.2-3.3s-1.8-1.2-3-1.2s-2.2,0.4-3,1.2
		s-1.2,1.9-1.2,3.3s0.4,2.5,1.2,3.3s1.8,1.2,3,1.2C43.3,24.9,44.3,24.5,45.1,23.6z"/>
	<path d="M68.2,12.9c1.3,0.7,2.2,1.7,2.9,3c0.7,1.3,1.1,2.8,1.1,4.4s-0.4,3.2-1.1,4.4c-0.7,1.3-1.7,2.3-2.9,3
		c-1.3,0.7-2.6,1.1-4.2,1.1c-2.3,0-4-0.7-5.2-2.1v1.9h-4.6V5.9H59v8c1.2-1.3,2.9-2,5-2C65.6,11.9,67,12.2,68.2,12.9z M66.2,23.6
		c0.8-0.8,1.2-1.9,1.2-3.3S67,17.8,66.2,17s-1.8-1.2-3-1.2c-1.2,0-2.2,0.4-3,1.2S59,18.9,59,20.3s0.4,2.5,1.2,3.3s1.8,1.2,3,1.2
		C64.4,24.9,65.4,24.5,66.2,23.6z"/>
	<path d="M75.4,5.9h4.8v22.7h-4.8V5.9z"/>
	<path d="M100.6,21.7H88.2c0.2,1,0.8,1.8,1.6,2.4c0.8,0.6,1.9,0.9,3.1,0.9c0.9,0,1.6-0.1,2.3-0.4c0.7-0.3,1.3-0.7,1.8-1.2l2.5,2.8
		c-1.5,1.8-3.8,2.7-6.8,2.7c-1.9,0-3.5-0.4-4.9-1.1s-2.5-1.7-3.3-3s-1.2-2.7-1.2-4.4c0-1.6,0.4-3.1,1.1-4.4s1.8-2.3,3.1-3
		c1.3-0.7,2.8-1.1,4.5-1.1c1.6,0,3.1,0.3,4.4,1s2.3,1.7,3.1,3c0.7,1.3,1.1,2.8,1.1,4.5C100.7,20.5,100.7,20.9,100.6,21.7z
		 M89.5,16.4c-0.7,0.6-1.2,1.4-1.3,2.5h8.1c-0.2-1-0.6-1.9-1.3-2.5c-0.7-0.6-1.6-0.9-2.7-0.9C91.1,15.5,90.2,15.8,89.5,16.4z"/>
	<g>
		<rect x="125.3" y="24" width="15.3" height="4.5"/>
		<rect x="108" y="24" width="15.3" height="4.5"/>
		<rect x="125.3" y="5.9" width="15.3" height="4.5"/>
		<rect x="108" y="5.9" width="15.3" height="4.5"/>
		<rect x="125.3" y="14.9" width="10" height="4.5"/>
		<rect x="113.3" y="14.9" width="10" height="4.5"/>
	</g>
</g>
</svg>
